<svg width="247" height="258" viewBox="0 0 247 258" fill="none" xmlns="http://www.w3.org/2000/svg">
<path d="M233.724 67.6175C232.768 66.6099 231.629 65.8102 230.375 65.2644C229.121 64.7187 227.776 64.4377 226.417 64.4377C225.059 64.4377 223.714 64.7187 222.459 65.2644C221.205 65.8102 220.067 66.6099 219.11 67.6175L205.834 81.5925V21.5C205.834 18.6489 204.75 15.9146 202.82 13.8986C200.89 11.8826 198.272 10.75 195.542 10.75C192.813 10.75 190.195 11.8826 188.265 13.8986C186.335 15.9146 185.251 18.6489 185.251 21.5V81.5925L171.974 67.6175C170.036 65.5932 167.408 64.456 164.667 64.456C161.927 64.456 159.298 65.5932 157.36 67.6175C155.422 69.6418 154.334 72.3873 154.334 75.25C154.334 78.1127 155.422 80.8582 157.36 82.8825L188.235 115.132C189.214 116.111 190.368 116.878 191.631 117.39C192.863 117.959 194.195 118.253 195.542 118.253C196.889 118.253 198.221 117.959 199.453 117.39C200.716 116.878 201.871 116.111 202.849 115.132L233.724 82.8825C234.689 81.8831 235.455 80.6942 235.977 79.3842C236.5 78.0742 236.769 76.6691 236.769 75.25C236.769 73.8309 236.5 72.4258 235.977 71.1158C235.455 69.8058 234.689 68.6169 233.724 67.6175ZM195.542 139.75C192.813 139.75 190.195 140.883 188.265 142.899C186.335 144.915 185.251 147.649 185.251 150.5V154.585L170.019 138.675C164.641 133.102 157.372 129.974 149.796 129.974C142.22 129.974 134.951 133.102 129.573 138.675L122.369 146.2L96.8452 119.54C91.3919 114.118 84.1511 111.094 76.6221 111.094C69.0931 111.094 61.8523 114.118 56.399 119.54L41.1673 135.45V75.25C41.1673 72.3989 42.2516 69.6646 44.1817 67.6486C46.1117 65.6326 48.7295 64.5 51.459 64.5H133.792C136.522 64.5 139.14 63.3674 141.07 61.3514C143 59.3354 144.084 56.6011 144.084 53.75C144.084 50.8989 143 48.1646 141.07 46.1486C139.14 44.1326 136.522 43 133.792 43H51.459C43.2704 43 35.4172 46.3978 29.6271 52.4458C23.8369 58.4939 20.584 66.6968 20.584 75.25V204.25C20.584 212.803 23.8369 221.006 29.6271 227.054C35.4172 233.102 43.2704 236.5 51.459 236.5H174.959C183.148 236.5 191.001 233.102 196.791 227.054C202.581 221.006 205.834 212.803 205.834 204.25V150.5C205.834 147.649 204.75 144.915 202.82 142.899C200.89 140.883 198.272 139.75 195.542 139.75ZM51.459 215C48.7295 215 46.1117 213.867 44.1817 211.851C42.2516 209.835 41.1673 207.101 41.1673 204.25V165.872L71.0131 134.697C72.5251 133.192 74.5336 132.353 76.6221 132.353C78.7107 132.353 80.7191 133.192 82.2311 134.697L114.856 168.775L159.11 215H51.459ZM185.251 204.25C185.236 206.308 184.586 208.306 183.398 209.948L136.983 161.25L144.187 153.725C144.925 152.938 145.805 152.314 146.777 151.887C147.749 151.46 148.793 151.241 149.847 151.241C150.902 151.241 151.945 151.46 152.917 151.887C153.889 152.314 154.77 152.938 155.508 153.725L185.251 185.007V204.25Z" fill="#85B6FF"/>
</svg>
