<svg width="121" height="125" viewBox="0 0 121 125" fill="none" xmlns="http://www.w3.org/2000/svg">
<g clip-path="url(#clip0_1054_4133)">
<path d="M40.2716 25.6412H40.449C40.6264 25.4631 40.8038 25.4631 40.6264 25.107C41.1586 24.5728 41.5135 23.6825 41.1586 22.7922C40.9812 22.4361 40.6264 22.4361 40.2716 22.4361C40.0941 22.4361 39.7393 22.4361 39.5619 22.4361V22.258L33.3522 19.7651C32.9974 18.5187 32.4651 17.2722 31.9328 16.2039C31.7554 13.5329 29.449 11.7523 29.449 9.08136C29.8038 8.54717 30.1586 8.72523 30.5135 8.72523C30.6909 8.72523 31.0457 8.72523 31.2232 8.72523C31.578 8.54717 31.7554 8.36911 31.578 7.83492C31.7554 7.83492 31.7554 7.47879 31.9328 7.47879C31.9328 6.76654 31.9328 6.23235 32.6425 6.05429C32.2877 5.34204 31.9328 4.80785 31.9328 4.27366C32.4651 3.38335 31.7554 2.13691 31.7554 1.2466C30.8683 0.890473 29.8038 0.178223 28.7393 0.178223C28.207 0.178223 27.8522 0.356285 27.3199 0.712411C26.4328 1.60272 25.9006 2.6711 26.078 3.56141C26.078 5.5201 26.4328 5.5201 26.6103 6.76654C26.2554 6.94461 26.2554 7.65686 25.7232 7.47879C25.0135 8.36911 24.1264 9.43748 23.4167 10.3278C20.9328 12.4646 17.5619 14.6013 17.207 18.1626C17.3845 20.8335 17.5619 23.5044 17.3845 26.3534C17.5619 26.3534 17.5619 26.3534 17.7393 26.3534C17.9167 26.3534 18.0941 26.3534 18.2715 26.3534V26.5315C18.2715 26.7096 18.2715 26.8876 18.2715 26.8876H18.449C18.8038 27.7779 18.449 29.0244 18.8038 29.9147C18.9812 30.2708 18.9812 30.805 19.5135 30.9831C19.5135 30.805 19.5135 30.805 19.5135 30.6269L19.8683 31.3392C20.0457 31.5173 20.2232 31.1611 20.2232 30.9831C20.4006 31.1611 20.2232 31.3392 20.4006 31.5173C20.578 31.6953 20.578 31.8734 20.7554 31.6953L20.9328 29.3805C21.2877 30.0928 21.1103 30.9831 21.2877 31.6953C21.6425 31.3392 21.4651 30.805 21.4651 30.2708C21.2877 28.8463 21.4651 27.7779 20.9328 26.5315C21.1103 26.3534 21.1103 26.1754 21.1103 25.9973C21.2877 25.9973 21.2877 25.8193 21.4651 25.8193C21.8199 23.3264 21.6425 20.4774 21.8199 18.1626L22.707 17.4503C23.4167 21.0116 22.8845 24.5728 22.3522 28.1341C22.5296 28.8463 22.707 29.5586 22.5296 30.2708V31.5173H22.707V30.9831C22.707 32.2295 22.3522 33.8321 23.2393 34.5443C23.2393 37.9275 23.2393 41.3107 22.707 44.5158C20.7554 49.5016 17.5619 54.3093 17.9167 59.8292H20.4006L20.578 59.295C22.707 59.6512 25.1909 60.1854 26.9651 58.7609C26.7877 57.5144 25.0135 58.0486 24.1264 57.5144C23.7715 57.3363 23.2393 57.1583 22.8845 56.6241H22.5296C23.0619 54.1312 24.3038 51.8164 25.5457 49.6797C28.7393 45.5842 28.5619 40.2423 29.0941 35.0785C29.2715 34.9005 29.449 34.9004 29.6264 34.9004C29.8038 34.9004 29.9812 34.9004 30.1586 34.9004C30.8683 34.9004 31.578 34.9005 31.4006 34.1882C34.4167 34.3663 37.078 35.9688 40.0941 36.325C40.0941 36.6811 39.9167 36.8591 39.7393 37.2153C39.7393 38.1056 39.7393 38.8178 39.5619 39.5301V40.0643C39.3845 43.9816 39.5619 46.2965 40.2716 50.0358H42.4006L42.578 49.5016C44.5296 49.3235 47.0135 49.6797 48.9651 48.2552C48.6103 47.1868 47.0135 47.899 46.1264 47.3648C45.5941 47.1868 44.8845 46.8307 44.707 46.2965C44.5296 42.3791 44.707 38.1056 45.4167 34.1882C42.4006 30.0928 38.1425 29.2024 34.2393 27.2438C34.4167 26.7096 34.2393 26.8876 34.4167 26.5315C33.3522 26.5315 32.8199 25.6412 31.9328 25.9973C31.7554 24.9289 31.578 23.8606 31.9328 22.7922C32.2877 22.9702 32.4651 23.1483 32.8199 23.5044C34.7715 24.2167 36.9006 24.3947 38.8522 25.2851L39.5619 24.7509" fill="#095FA8"/>
<path d="M9.04688 101.852H32.4662V60.0073H9.04688V101.852ZM27.3211 92.4147C26.9662 93.305 26.0791 93.8392 25.0146 94.5515C23.9501 95.0857 22.5307 95.4418 20.934 95.4418C19.3372 95.4418 17.9178 95.0857 16.6759 94.5515C15.434 93.8392 14.7243 93.127 14.3695 92.0586C14.0146 90.9902 13.8372 89.7438 13.8372 87.9632V86.3606H19.692V89.0315C19.692 89.9219 19.692 90.456 19.8695 90.8122C20.0469 90.9902 20.2243 91.1683 20.7566 91.1683C21.1114 91.1683 21.4662 90.9902 21.6437 90.6341C21.8211 90.278 21.9985 89.7438 21.9985 89.2096C21.9985 87.7851 21.8211 86.8948 21.4662 86.3606C21.1114 85.8264 20.0469 85.1142 18.6275 84.2238C17.0307 83.1555 15.9662 82.4432 15.6114 81.909C14.9017 81.5529 14.3695 80.8407 14.192 80.1284C13.8372 79.2381 13.6598 78.1697 13.6598 76.9233C13.6598 75.1427 13.8372 73.7182 14.3695 72.8278C14.9017 71.9375 15.6114 71.4033 16.6759 70.8691C17.7404 70.335 18.9824 70.1569 20.4017 70.1569C21.9985 70.1569 23.4178 70.335 24.4824 70.8691C25.5469 71.4033 26.434 72.1156 26.7888 72.8278C27.1437 73.7182 27.3211 74.9646 27.3211 76.9233V77.8136H21.4662V76.033C21.4662 75.1427 21.4662 74.6085 21.2888 74.4304C21.1114 74.2523 20.934 74.0743 20.5791 74.0743C20.2243 74.0743 19.8695 74.2523 19.692 74.6085C19.5146 74.9646 19.5146 75.4988 19.5146 76.033C19.5146 76.9233 19.692 77.4575 19.8695 77.8136C20.0469 78.1697 20.7566 78.7039 21.6437 79.2381C24.4824 80.8407 26.2566 82.2652 26.9662 83.3335C27.6759 84.4019 28.0308 86.0045 28.0308 88.4974C27.8533 90.278 27.6759 91.5244 27.3211 92.4147Z" fill="#095FA8"/>
<path d="M35.4805 101.852H58.8998V50.5698H35.4805V101.852ZM54.2869 75.1425H50.3837V95.0855H43.8192V75.1425H39.916V70.1567H54.1095V75.1425H54.2869Z" fill="#095FA8"/>
<path d="M61.918 101.852H85.3373V40.7764H61.918V101.852ZM79.4825 95.2635H68.6599V70.1567H78.9502V75.1425H74.5147V79.9502H78.5954V84.7578H74.5147V90.2778H79.3051V95.2635H79.4825Z" fill="#095FA8"/>
<path d="M99.5312 74.4302V80.8404C99.7087 80.8404 99.8861 80.8404 100.064 80.8404C100.596 80.8404 101.128 80.6624 101.305 80.4843C101.483 80.1282 101.66 79.594 101.66 78.7037V76.5669C101.66 75.6766 101.483 75.1424 101.305 74.9644C100.951 74.6082 100.418 74.4302 99.5312 74.4302Z" fill="#095FA8"/>
<path d="M88.3516 101.852H111.771V31.3394H88.3516V101.852ZM106.981 79.4163C106.981 81.0188 106.803 82.0872 106.448 82.9775C106.094 83.6898 105.561 84.224 104.674 84.5801C103.787 84.9362 102.723 85.1143 101.126 85.1143H99.3516V95.2639H93.3193V70.157H99.3516C101.126 70.157 102.545 70.3351 103.432 70.5131C104.319 70.8693 105.029 71.2254 105.561 71.7596C106.094 72.2938 106.448 73.006 106.626 73.7183C106.803 74.4305 106.803 75.677 106.803 77.2795L106.981 79.4163Z" fill="#095FA8"/>
<path d="M13.6598 107.016H9.04688V124.466H13.6598V107.016Z" fill="#095FA8"/>
<path d="M24.6581 107.016V110.577H21.9968V124.466H17.3839V110.577H14.7227V107.016H24.6581Z" fill="#095FA8"/>
<path d="M37.6109 107.016L40.2722 124.466H35.4819L35.3044 121.261H33.7077L33.3528 124.466H28.5625L30.869 107.016H37.6109ZM35.127 118.234C34.9496 116.275 34.5948 113.782 34.4173 110.933C33.8851 114.316 33.7077 116.631 33.5302 118.234H35.127Z" fill="#095FA8"/>
<path d="M51.6273 114.673H47.0144V111.646C47.0144 110.755 47.0144 110.221 46.8369 110.043C46.6595 109.865 46.4821 109.687 46.1273 109.687C45.7724 109.687 45.4176 109.865 45.4176 110.043C45.2402 110.221 45.2402 110.933 45.2402 111.824V120.015C45.2402 120.905 45.2402 121.439 45.4176 121.617C45.595 121.795 45.7724 121.973 46.1273 121.973C46.4821 121.973 46.6595 121.795 46.8369 121.617C47.0144 121.439 47.0144 120.727 47.0144 119.836V117.522H51.6273V118.234C51.6273 120.015 51.4498 121.261 51.2724 122.151C51.095 122.864 50.3853 123.576 49.4982 124.11C48.6111 124.644 47.5466 125 46.3047 125C44.8853 125 43.8208 124.822 42.9337 124.288C42.0466 123.754 41.5144 123.22 41.1595 122.329C40.8047 121.439 40.8047 120.193 40.8047 118.412V113.426C40.8047 112.18 40.8047 111.289 40.9821 110.577C40.9821 109.865 41.3369 109.331 41.6918 108.797C42.0466 108.262 42.7563 107.728 43.466 107.372C44.1757 107.016 45.0628 106.838 46.1273 106.838C47.5466 106.838 48.6111 107.016 49.4982 107.55C50.3853 108.084 50.9176 108.797 51.2724 109.509C51.6273 110.221 51.6273 111.468 51.6273 113.07V114.673Z" fill="#095FA8"/>
<path d="M61.2069 107.016L63.8682 124.466H59.2553L59.0779 121.261H57.4811L57.1263 124.466H52.3359L54.6424 107.016H61.2069ZM58.723 118.234C58.5456 116.275 58.1908 113.782 58.0134 110.933C57.4811 114.316 57.3037 116.631 57.1263 118.234H58.723Z" fill="#095FA8"/>
<path d="M64.5798 107.016H67.9507C70.0798 107.016 71.6765 107.194 72.3862 107.372C73.0959 107.55 73.8056 107.906 74.1604 108.44C74.5152 108.974 74.8701 109.33 74.8701 110.043C75.0475 110.577 75.0475 111.645 75.0475 113.426V119.302C75.0475 120.905 75.0475 121.973 74.8701 122.507C74.6927 123.041 74.5152 123.397 74.1604 123.754C73.8056 124.11 73.2733 124.288 72.7411 124.466C72.2088 124.644 71.3217 124.644 70.2572 124.644H64.4023L64.5798 107.016ZM69.1927 110.043V121.617C69.9023 121.617 70.2572 121.439 70.4346 121.261C70.612 121.083 70.612 120.37 70.612 119.124V112.179C70.612 111.467 70.612 110.933 70.612 110.755C70.612 110.577 70.4346 110.399 70.2572 110.221C70.0798 110.043 69.7249 110.043 69.1927 110.043Z" fill="#095FA8"/>
<path d="M77 107.016H84.629V110.577H81.6129V113.782H84.4516V117.165H81.6129V120.905H84.8064V124.466H77V107.016Z" fill="#095FA8"/>
<path d="M100.418 107.016V124.466H96.3372V112.714L94.7404 124.466H91.9017L90.1275 112.892V124.466H86.0469V107.016H91.9017C92.0791 108.084 92.2565 109.33 92.434 110.755L93.1436 115.207L94.2082 107.016H100.418Z" fill="#095FA8"/>
<path d="M111.951 107.016L108.581 118.056V124.288H104.322V118.056L101.129 107.016H105.387C106.097 110.399 106.451 112.714 106.451 113.96C106.629 112.001 107.161 109.865 107.693 107.016H111.951Z" fill="#095FA8"/>
</g>
<defs>
<clipPath id="clip0_1054_4133">
<rect width="121" height="125" fill="white"/>
</clipPath>
</defs>
</svg>
