<svg width="75" height="79" viewBox="0 0 75 79" fill="none" xmlns="http://www.w3.org/2000/svg">
<path d="M73.6233 20.3538C73.293 20.0078 72.9002 19.7331 72.4673 19.5457C72.0345 19.3583 71.5702 19.2618 71.1012 19.2618C70.6323 19.2618 70.168 19.3583 69.7352 19.5457C69.3023 19.7331 68.9095 20.0078 68.5792 20.3538L63.997 25.1534V4.51523C63.997 3.53605 63.6227 2.59698 62.9566 1.9046C62.2904 1.21222 61.3869 0.823242 60.4449 0.823242C59.5028 0.823242 58.5993 1.21222 57.9331 1.9046C57.267 2.59698 56.8927 3.53605 56.8927 4.51523V25.1534L52.3105 20.3538C51.6416 19.6586 50.7344 19.2681 49.7885 19.2681C48.8425 19.2681 47.9353 19.6586 47.2664 20.3538C46.5976 21.049 46.2218 21.992 46.2218 22.9751C46.2218 23.9583 46.5976 24.9012 47.2664 25.5964L57.9228 36.6724C58.2607 37.0085 58.659 37.272 59.095 37.4477C59.5202 37.643 59.98 37.7439 60.4449 37.7439C60.9097 37.7439 61.3695 37.643 61.7947 37.4477C62.2307 37.272 62.629 37.0085 62.9669 36.6724L73.6233 25.5964C73.9562 25.2532 74.2205 24.8449 74.4008 24.395C74.5811 23.9451 74.674 23.4625 74.674 22.9751C74.674 22.4878 74.5811 22.0052 74.4008 21.5553C74.2205 21.1054 73.9562 20.6971 73.6233 20.3538ZM60.4449 45.127C59.5028 45.127 58.5993 45.516 57.9331 46.2084C57.267 46.9008 56.8927 47.8398 56.8927 48.819V50.222L51.6356 44.7578C49.7793 42.8437 47.2704 41.7696 44.6556 41.7696C42.0408 41.7696 39.5319 42.8437 37.6757 44.7578L35.1892 47.3422L26.3799 38.1861C24.4977 36.3239 21.9986 35.2853 19.4 35.2853C16.8013 35.2853 14.3022 36.3239 12.42 38.1861L7.16286 43.6502V22.9751C7.16286 21.996 7.5371 21.0569 8.20326 20.3645C8.86941 19.6721 9.77291 19.2832 10.715 19.2832H39.1321C40.0741 19.2832 40.9776 18.8942 41.6438 18.2018C42.3099 17.5094 42.6842 16.5703 42.6842 15.5912C42.6842 14.612 42.3099 13.6729 41.6438 12.9805C40.9776 12.2882 40.0741 11.8992 39.1321 11.8992H10.715C7.88874 11.8992 5.17824 13.0661 3.17978 15.1433C1.18132 17.2204 0.0585938 20.0376 0.0585938 22.9751V67.2789C0.0585938 70.2165 1.18132 73.0337 3.17978 75.1108C5.17824 77.188 7.88874 78.3549 10.715 78.3549H53.3406C56.1668 78.3549 58.8773 77.188 60.8758 75.1108C62.8743 73.0337 63.997 70.2165 63.997 67.2789V48.819C63.997 47.8398 63.6227 46.9008 62.9566 46.2084C62.2904 45.516 61.3869 45.127 60.4449 45.127ZM10.715 70.9709C9.77291 70.9709 8.86941 70.5819 8.20326 69.8896C7.5371 69.1972 7.16286 68.2581 7.16286 67.2789V54.0986L17.464 43.3918C17.9859 42.8749 18.6791 42.5866 19.4 42.5866C20.1208 42.5866 20.814 42.8749 21.3359 43.3918L32.5961 55.0954L47.8703 70.9709H10.715ZM56.8927 67.2789C56.8876 67.9857 56.6634 68.6719 56.2533 69.2357L40.2332 52.511L42.7197 49.9266C42.9744 49.6565 43.2783 49.4419 43.6138 49.2953C43.9493 49.1488 44.3095 49.0734 44.6734 49.0734C45.0373 49.0734 45.3975 49.1488 45.733 49.2953C46.0684 49.4419 46.3724 49.6565 46.6271 49.9266L56.8927 60.6703V67.2789Z" fill="#85B6FF"/>
</svg>
